<svg version="1.1" id="Layer_1" xmlns="http://www.w3.org/2000/svg" xmlns:xlink="http://www.w3.org/1999/xlink" x="0px" y="0px"
	 width="100%" viewBox="0 0 639 639" enable-background="new 0 0 639 639" xml:space="preserve">

<path fill="#333" opacity="1" stroke="none" 
	d="
M1,260 
	C2,259 3,258 3,257 
	C37,197 70,137 104,77 
	C112,62 121,46 129,31 
	C132,26 135,24 140,22 
	C152,18 165,14 178,10 
	C181,8 185,8 189,8 
	C276,8 362,8 449,8 
	C453,8 457,9 461,11 
	C474,16 486,22 498,28 
	C501,29 504,32 506,35 
	C549,110 592,184 635,259 
	C636,262 637,267 637,270 
	C636,285 634,299 633,313 
	C632,316 631,319 630,322 
	C587,399 544,477 501,555 
	C499,558 497,561 494,563 
	C482,571 470,579 459,587 
	C456,589 452,590 448,590 
	C361,590 275,590 188,590 
	C184,590 180,589 177,587 
	C167,580 157,573 148,566 
	C145,564 142,561 140,557 
	C94,480 49,403 4,325 
	C3,324 2,323 1,322 
	C1,302 1,281 1,260 
M89,154 
	C97,146 104,138 111,130 
	C116,124 121,119 126,113 
	C129,110 134,109 138,111 
	C142,114 144,119 142,123 
	C142,125 140,127 139,129 
	C132,136 126,144 119,152 
	C131,150 142,149 153,148 
	C160,148 163,149 165,154 
	C167,159 166,163 160,167 
	C146,178 132,189 118,199 
	C108,207 98,214 89,221 
	C83,225 77,224 73,218 
	C71,214 72,209 77,205 
	C90,195 104,185 117,175 
	C117,175 118,174 120,172 
	C112,173 106,173 99,173 
	C96,173 91,173 88,171 
	C86,169 85,165 83,161 
	C82,163 82,165 80,168 
	C62,199 45,231 27,263 
	C23,269 21,275 22,282 
	C23,287 24,293 24,299 
	C26,298 27,298 28,297 
	C64,275 101,254 138,232 
	C140,230 143,228 144,225 
	C154,209 163,193 172,177 
	C174,174 175,171 175,168 
	C175,126 175,84 175,43 
	C175,41 175,39 175,36 
	C166,40 157,43 149,47 
	C148,47 147,49 147,50 
	C141,59 136,69 130,79 
	C116,104 102,129 87,155 
	C87,156 86,157 86,158 
	C87,158 87,158 87,158 
	C88,157 88,156 89,154 
M447,292 
	C456,276 465,259 475,243 
	C476,240 476,239 475,236 
	C465,221 455,206 446,190 
	C444,188 443,187 440,187 
	C420,187 401,187 381,187 
	C320,187 258,187 197,187 
	C194,187 192,187 190,190 
	C180,205 171,221 161,237 
	C160,239 160,241 161,243 
	C203,314 244,385 285,457 
	C287,460 289,461 292,461 
	C310,460 328,460 346,461 
	C349,461 351,460 353,456 
	C384,402 415,347 447,292 
M75,400 
	C101,446 127,491 153,536 
	C192,513 230,490 268,467 
	C226,396 184,325 142,253 
	C104,276 67,298 29,320 
	C44,347 59,373 75,400 
M363,165 
	C389,165 415,165 440,165 
	C440,121 440,76 440,32 
	C358,32 277,32 195,32 
	C195,76 195,121 195,165 
	C251,165 307,165 363,165 
M420,497 
	C441,510 461,523 482,536 
	C523,463 563,391 604,318 
	C567,296 530,274 493,253 
	C452,324 411,395 371,466 
	C387,477 403,487 420,497 
M175,547 
	C173,548 171,550 168,551 
	C174,555 180,559 185,563 
	C187,564 189,565 192,565 
	C275,565 359,565 443,565 
	C444,565 446,565 447,565 
	C454,560 460,556 467,551 
	C466,550 466,550 465,549 
	C429,527 393,505 357,483 
	C355,482 352,481 350,481 
	C329,481 309,481 289,481 
	C286,481 283,482 281,483 
	C246,504 211,525 175,547 
M536,138 
	C520,110 504,82 488,55 
	C487,53 487,51 485,50 
	C477,46 470,43 462,39 
	C461,41 461,42 461,42 
	C461,84 461,126 461,168 
	C461,170 462,172 463,174 
	C474,192 486,210 497,228 
	C498,230 500,231 502,232 
	C536,253 570,274 605,294 
	C606,295 607,295 608,296 
	C609,293 609,290 609,287 
	C611,275 608,266 603,255 
	C580,217 558,178 536,138 
z"/>

<path fill="#333" opacity="1" stroke="none" 
	d="
M87,155 
	C88,155 88,155 88,155 
	C88,156 88,157 87,158 
	C87,158 87,158 86,158 
	C86,157 87,156 87,155 
z"/>
<path fill="#333" opacity="1" stroke="none" 
	d="
M180,423 
	C172,423 165,422 157,421 
	C155,421 153,421 150,420 
	C146,419 144,416 144,412 
	C143,406 146,403 152,401 
	C145,397 138,393 131,389 
	C119,382 108,376 97,370 
	C94,368 92,365 91,362 
	C89,358 91,354 95,352 
	C98,349 102,350 106,352 
	C119,359 132,367 145,374 
	C163,384 180,394 198,404 
	C199,405 201,406 202,407 
	C206,410 206,414 205,418 
	C203,422 200,425 196,424 
	C191,424 185,424 180,423 
z"/>
<path fill="#333" opacity="1" stroke="none" 
	d="
M310,66 
	C330,66 351,66 371,66 
	C379,66 384,72 382,79 
	C382,81 380,83 379,84 
	C365,98 352,112 338,126 
	C331,133 325,133 319,124 
	C317,120 314,115 311,111 
	C303,117 296,123 288,129 
	C284,133 278,132 275,128 
	C271,124 272,119 275,115 
	C276,114 277,113 278,112 
	C287,105 296,97 305,90 
	C306,89 307,88 309,86 
	C295,86 283,86 270,86 
	C268,86 266,86 264,86 
	C258,86 254,81 254,75 
	C255,70 259,66 265,66 
	C278,66 291,66 305,66 
	C306,66 308,66 310,66 
M323,91 
	C325,95 328,100 330,103 
	C336,98 342,92 348,87 
	C338,87 329,87 319,87 
	C320,88 321,89 323,91 
z"/>
<path fill="#333" opacity="1" stroke="none" 
	d="
M520,346 
	C528,355 536,363 544,372 
	C550,378 549,383 543,389 
	C513,416 483,442 453,469 
	C449,472 445,474 441,471 
	C436,469 434,465 436,461 
	C437,458 439,455 441,453 
	C450,444 460,436 470,428 
	C472,426 473,424 475,422 
	C471,419 468,416 463,413 
	C464,415 464,416 464,418 
	C465,424 463,429 457,430 
	C451,432 447,429 445,422 
	C443,414 441,405 439,396 
	C438,395 438,393 438,392 
	C436,387 437,383 441,380 
	C446,377 450,378 454,381 
	C462,387 469,393 477,398 
	C478,399 479,400 481,401 
	C481,399 481,397 481,394 
	C481,374 481,353 481,333 
	C481,328 483,324 488,322 
	C493,320 497,322 500,325 
	C506,332 513,339 520,346 
M523,380 
	C522,379 522,378 522,377 
	C515,370 509,363 502,356 
	C502,371 502,385 502,399 
	C509,393 516,387 523,380 
z"/>
<path fill="#333" opacity="1" stroke="none" 
	d="
M297,541 
	C295,531 293,522 292,513 
	C291,509 290,507 287,505 
	C286,504 285,503 284,502 
	C280,499 280,494 282,490 
	C284,486 288,484 293,486 
	C300,488 306,493 310,499 
	C315,498 319,497 324,496 
	C334,496 343,495 353,495 
	C359,495 362,498 364,503 
	C365,507 363,512 359,514 
	C357,515 354,515 351,515 
	C344,516 336,516 329,516 
	C327,516 325,518 324,519 
	C321,526 318,532 315,539 
	C310,547 303,548 297,541 
z"/>
<path fill="#333" opacity="1" stroke="none" 
	d="
M516,125 
	C524,125 527,127 528,134 
	C533,160 537,185 541,211 
	C542,215 541,219 537,221 
	C533,224 529,224 526,221 
	C513,213 501,204 489,196 
	C484,192 483,187 485,183 
	C487,178 492,177 499,178 
	C502,164 505,150 508,136 
	C509,131 510,127 516,125 
z"/>

</svg>